<svg width="104" height="26" viewBox="0 0 104 26" fill="none" xmlns="http://www.w3.org/2000/svg">
<path d="M6.06613 19.1516C4.9285 19.1516 3.89995 18.9569 2.98049 18.5676C2.07661 18.1782 1.35974 17.6176 0.829883 16.8857C0.300024 16.1537 0.0273028 15.2894 0.0117188 14.2927H3.51814C3.56489 14.9624 3.79865 15.4919 4.21942 15.8812C4.65577 16.2705 5.24797 16.4652 5.99601 16.4652C6.75962 16.4652 7.35961 16.2861 7.79597 15.9279C8.23232 15.5542 8.4505 15.0714 8.4505 14.4796C8.4505 13.9968 8.30245 13.5997 8.00635 13.2882C7.71025 12.9768 7.33624 12.7354 6.8843 12.5641C6.44794 12.3772 5.84016 12.1748 5.06096 11.9567C4.00124 11.6453 3.13633 11.3416 2.46621 11.0457C1.81168 10.7342 1.24286 10.2748 0.759755 9.66746C0.292232 9.04453 0.058471 8.21914 0.058471 7.19131C0.058471 6.22576 0.300024 5.38481 0.783131 4.66844C1.26624 3.95207 1.94414 3.407 2.81685 3.03324C3.68956 2.64391 4.68694 2.44925 5.809 2.44925C7.49208 2.44925 8.85568 2.86194 9.89982 3.68732C10.9595 4.49713 11.5439 5.63398 11.653 7.09787H8.0531C8.02194 6.53723 7.78038 6.07782 7.32844 5.71963C6.89209 5.34587 6.30769 5.159 5.57523 5.159C4.93629 5.159 4.42201 5.32251 4.03241 5.64955C3.65839 5.97659 3.47138 6.45158 3.47138 7.07451C3.47138 7.51056 3.61164 7.87653 3.89215 8.17242C4.18825 8.45274 4.54669 8.68634 4.96746 8.87322C5.40381 9.04453 6.01159 9.24698 6.79079 9.48058C7.85051 9.79204 8.71543 10.1035 9.38554 10.415C10.0557 10.7264 10.6323 11.1936 11.1154 11.8166C11.5985 12.4395 11.84 13.2571 11.84 14.2694C11.84 15.1415 11.6141 15.9513 11.1621 16.6988C10.7102 17.4463 10.0479 18.0459 9.17516 18.4975C8.30245 18.9335 7.26611 19.1516 6.06613 19.1516Z" fill="#F9F9F9"/>
<path d="M26.903 6.04667V18.9881H23.607V17.3529C23.1862 17.9135 22.633 18.3573 21.9473 18.6844C21.2772 18.9958 20.5447 19.1516 19.7499 19.1516C18.737 19.1516 17.8409 18.9413 17.0617 18.5209C16.2825 18.0848 15.6669 17.4541 15.215 16.6287C14.7786 15.7878 14.5604 14.7911 14.5604 13.6386V6.04667H17.8331V13.1714C17.8331 14.1993 18.0902 14.9935 18.6045 15.5542C19.1188 16.0992 19.8201 16.3717 20.7083 16.3717C21.6122 16.3717 22.3213 16.0992 22.8356 15.5542C23.3499 14.9935 23.607 14.1993 23.607 13.1714V6.04667H26.903Z" fill="#F9F9F9"/>
<path d="M33.4047 8.05562C33.8255 7.3704 34.3709 6.83312 35.041 6.44379C35.7267 6.05446 36.5059 5.85979 37.3786 5.85979V9.2937H36.5137C35.4852 9.2937 34.706 9.53508 34.1761 10.0179C33.6618 10.5006 33.4047 11.3416 33.4047 12.5407V18.9881H30.132V6.04667H33.4047V8.05562Z" fill="#F9F9F9"/>
<path d="M42.8556 7.91546C43.2763 7.32368 43.853 6.83312 44.5854 6.44379C45.3335 6.03888 46.1828 5.83643 47.1334 5.83643C48.2399 5.83643 49.2373 6.10896 50.1256 6.65403C51.0294 7.19909 51.7385 7.97776 52.2528 8.99002C52.7826 9.98671 53.0476 11.1469 53.0476 12.4706C53.0476 13.7944 52.7826 14.9702 52.2528 15.998C51.7385 17.0103 51.0294 17.7967 50.1256 18.3573C49.2373 18.918 48.2399 19.1983 47.1334 19.1983C46.1828 19.1983 45.3412 19.0036 44.6088 18.6143C43.8919 18.225 43.3075 17.7344 42.8556 17.1426V25.1551H39.5829V6.04667H42.8556V7.91546ZM49.7048 12.4706C49.7048 11.692 49.5412 11.0223 49.2139 10.4617C48.9022 9.88548 48.4814 9.44943 47.9516 9.15354C47.4373 8.85765 46.8763 8.7097 46.2685 8.7097C45.6763 8.7097 45.1153 8.86543 44.5854 9.1769C44.0711 9.47279 43.6504 9.90884 43.3231 10.4851C43.0114 11.0613 42.8556 11.7387 42.8556 12.5174C42.8556 13.296 43.0114 13.9735 43.3231 14.5497C43.6504 15.1259 44.0711 15.5697 44.5854 15.8812C45.1153 16.1771 45.6763 16.325 46.2685 16.325C46.8763 16.325 47.4373 16.1693 47.9516 15.8578C48.4814 15.5464 48.9022 15.1025 49.2139 14.5263C49.5412 13.9501 49.7048 13.2649 49.7048 12.4706Z" fill="#F9F9F9"/>
<path d="M58.6984 8.05562C59.1191 7.3704 59.6646 6.83312 60.3347 6.44379C61.0204 6.05446 61.7996 5.85979 62.6723 5.85979V9.2937H61.8074C60.7789 9.2937 59.9996 9.53508 59.4698 10.0179C58.9555 10.5006 58.6984 11.3416 58.6984 12.5407V18.9881H55.4257V6.04667H58.6984V8.05562Z" fill="#F9F9F9"/>
<path d="M68.1493 6.04667V18.9881H64.8766V6.04667H68.1493Z" fill="#F9F9F9"/>
<path d="M76.3384 19.1983C75.2787 19.1983 74.3281 19.0114 73.4865 18.6377C72.645 18.2483 71.9749 17.7266 71.4762 17.0725C70.9931 16.4185 70.7281 15.6943 70.6814 14.9001H73.9774C74.0397 15.3984 74.2813 15.8111 74.7021 16.1381C75.1384 16.4652 75.6761 16.6287 76.315 16.6287C76.9384 16.6287 77.4215 16.5041 77.7643 16.2549C78.1228 16.0058 78.302 15.6865 78.302 15.2972C78.302 14.8767 78.0838 14.5652 77.6475 14.3628C77.2267 14.1448 76.5488 13.9112 75.6137 13.662C74.6475 13.4284 73.8527 13.187 73.2294 12.9378C72.6216 12.6887 72.0917 12.3071 71.6398 11.7932C71.2034 11.2793 70.9853 10.5863 70.9853 9.71418C70.9853 8.99781 71.1879 8.34373 71.593 7.75194C72.0138 7.16016 72.606 6.69296 73.3696 6.35035C74.1488 6.00774 75.0605 5.83643 76.1046 5.83643C77.6475 5.83643 78.8786 6.22576 79.7981 7.00443C80.7175 7.76752 81.224 8.80314 81.3175 10.1113H78.1851C78.1384 9.59738 77.9202 9.19247 77.5306 8.89658C77.1566 8.58511 76.6501 8.42938 76.0111 8.42938C75.4189 8.42938 74.9592 8.53839 74.6319 8.75642C74.3203 8.97445 74.1644 9.27812 74.1644 9.66746C74.1644 10.1035 74.3826 10.4383 74.8189 10.6719C75.2553 10.89 75.9332 11.1158 76.8527 11.3494C77.7877 11.583 78.5591 11.8244 79.1669 12.0735C79.7747 12.3227 80.2968 12.712 80.7331 13.2415C81.1851 13.7554 81.4188 14.4407 81.4344 15.2972C81.4344 16.0447 81.224 16.7144 80.8032 17.3061C80.398 17.8979 79.8059 18.3651 79.0266 18.7077C78.263 19.0348 77.367 19.1983 76.3384 19.1983Z" fill="#F9F9F9"/>
<path d="M96.1595 12.237C96.1595 12.7042 96.1283 13.1247 96.066 13.4985H86.5987C86.6766 14.4329 87.0039 15.1648 87.5805 15.6943C88.1571 16.2238 88.8662 16.4885 89.7077 16.4885C90.9233 16.4885 91.7882 15.9668 92.3025 14.9234H95.8323C95.4582 16.1693 94.7414 17.1971 93.6817 18.0069C92.6219 18.8012 91.3207 19.1983 89.7778 19.1983C88.5311 19.1983 87.4091 18.9258 86.4117 18.3807C85.4299 17.8201 84.6585 17.0336 84.0974 16.0213C83.552 15.0091 83.2793 13.8411 83.2793 12.5174C83.2793 11.1781 83.552 10.0023 84.0974 8.99002C84.6429 7.97776 85.4065 7.19909 86.3883 6.65403C87.3701 6.10896 88.4999 5.83643 89.7778 5.83643C91.009 5.83643 92.1077 6.10118 93.0739 6.63067C94.0557 7.16016 94.8115 7.91546 95.3414 8.89658C95.8868 9.86212 96.1595 10.9756 96.1595 12.237ZM92.77 11.3026C92.7544 10.4617 92.4505 9.79204 91.8583 9.2937C91.2661 8.77978 90.5415 8.52282 89.6843 8.52282C88.874 8.52282 88.1883 8.77199 87.6272 9.27034C87.0818 9.75311 86.7467 10.4305 86.6221 11.3026H92.77Z" fill="#F9F9F9"/>
<path d="M102.779 2.40253L102.405 13.6854H99.6469L99.2496 2.40253H102.779ZM101.096 19.1516C100.504 19.1516 100.013 18.9725 99.6236 18.6143C99.2496 18.2405 99.0626 17.7811 99.0626 17.2361C99.0626 16.691 99.2496 16.2394 99.6236 15.8812C100.013 15.5074 100.504 15.3206 101.096 15.3206C101.673 15.3206 102.148 15.5074 102.522 15.8812C102.896 16.2394 103.083 16.691 103.083 17.2361C103.083 17.7811 102.896 18.2405 102.522 18.6143C102.148 18.9725 101.673 19.1516 101.096 19.1516Z" fill="#F9F9F9"/>
<path fill-rule="evenodd" clip-rule="evenodd" d="M67.0215 2.57921C68.7422 0.316158 70.4161 -0.665134 70.6408 0.48519C70.8652 1.63568 70.8432 4.27795 70.7364 4.54763C70.7348 4.55184 70.733 4.55621 70.7311 4.56124L70.0524 4.28897L70.0563 4.27909L70.055 4.2786C70.0856 4.20081 70.0952 3.42307 70.0744 2.53739C70.0595 1.90324 70.0204 1.24737 69.9491 0.787276C69.8725 0.821309 69.7824 0.871062 69.68 0.935401C69.1864 1.24575 68.5756 1.82043 67.9318 2.60838C69.2195 4.44293 69.7152 4.6635 69.9085 4.5332C69.9705 4.49139 70.0268 4.3478 70.0472 4.29529L70.7311 4.5614C70.6072 4.87775 69.8625 6.78037 67.0215 2.57937V2.57921ZM70.0577 4.27536L70.0551 4.27844L70.0564 4.27892L70.0579 4.27536H70.0577Z" fill="#F9F9F9"/>
<path fill-rule="evenodd" clip-rule="evenodd" d="M67.0215 2.57921C68.7422 0.316158 70.4161 -0.665134 70.6408 0.48519C70.8652 1.63568 70.8432 4.27795 70.7364 4.54762C70.6299 4.81714 69.9066 6.84519 67.0215 2.57921Z" fill="#F9F9F9"/>
<path fill-rule="evenodd" clip-rule="evenodd" d="M66.5095 2.51163C64.7413 0.285695 63.0467 -0.660105 62.8467 0.494756C62.6466 1.64962 62.7248 4.29108 62.8372 4.55833L63.5126 4.27472C63.4802 4.19774 63.4542 3.42016 63.4562 2.53432C63.4577 1.90049 63.483 1.24381 63.5446 0.781932C63.6218 0.814507 63.7129 0.862153 63.8167 0.924386C64.3169 1.2242 64.9398 1.78591 65.6 2.55993C64.3517 4.42138 63.8607 4.65248 63.6648 4.52608C63.602 4.48556 63.5425 4.34294 63.5209 4.29092L63.5198 4.29141L63.5177 4.28638L62.8372 4.55816C62.9494 4.82557 63.7157 6.83774 66.5095 2.51163Z" fill="#F9F9F9"/>
<path fill-rule="evenodd" clip-rule="evenodd" d="M66.5095 2.51163C64.7413 0.285695 63.0467 -0.660105 62.8467 0.494757C62.6466 1.64962 62.7248 4.29108 62.8372 4.55833C62.9494 4.82573 63.7157 6.83791 66.5095 2.51179V2.51163Z" fill="#F9F9F9"/>
<ellipse cx="66.7913" cy="2.81473" rx="1.56478" ry="1.5637" fill="#F9F9F9"/>
</svg>
